<svg width="192" height="192" viewBox="0 0 192 192" fill="none" xmlns="http://www.w3.org/2000/svg">
<rect width="192" height="192" rx="24" fill="#2563EB"/>
<path d="M96 48C117.539 48 135 65.461 135 87C135 108.539 117.539 126 96 126C74.461 126 57 108.539 57 87C57 65.461 74.461 48 96 48Z" fill="white"/>
<path d="M75 87C75 77.059 82.059 69 92 69H100C109.941 69 117 77.059 117 87V105H75V87Z" fill="#2563EB"/>
<circle cx="88" cy="81" r="4" fill="white"/>
<circle cx="104" cy="81" r="4" fill="white"/>
<path d="M88 93C88 96.314 90.686 99 94 99H98C101.314 99 104 96.314 104 93H88Z" fill="white"/>
</svg>
